<svg xmlns="http://www.w3.org/2000/svg" width="100" height="100" viewBox="0 0 100 100">
  <defs>
    <pattern id="pattern" width="100" height="100" patternUnits="userSpaceOnUse">
      <rect width="100" height="100" fill="#f8fafc"/>
      <path d="M0,0 L10,10 M20,0 L30,10 M40,0 L50,10 M60,0 L70,10 M80,0 L90,10 M-10,10 L0,20 M10,10 L20,20 M30,10 L40,20 M50,10 L60,20 M70,10 L80,20 M90,10 L100,20" stroke="#e2e8f0" stroke-width="0.5"/>
      <path d="M0,25 L100,25 M0,50 L100,50 M0,75 L100,75" stroke="#e2e8f0" stroke-width="0.2"/>
      <path d="M25,0 L25,100 M50,0 L50,100 M75,0 L75,100" stroke="#e2e8f0" stroke-width="0.2"/>
      <circle cx="50" cy="50" r="2" fill="#e2e8f0" opacity="0.3"/>
      <circle cx="0" cy="0" r="2" fill="#e2e8f0" opacity="0.3"/>
      <circle cx="0" cy="50" r="2" fill="#e2e8f0" opacity="0.3"/>
      <circle cx="50" cy="0" r="2" fill="#e2e8f0" opacity="0.3"/>
      <circle cx="100" cy="0" r="2" fill="#e2e8f0" opacity="0.3"/>
      <circle cx="0" cy="100" r="2" fill="#e2e8f0" opacity="0.3"/>
      <circle cx="100" cy="100" r="2" fill="#e2e8f0" opacity="0.3"/>
      <circle cx="100" cy="50" r="2" fill="#e2e8f0" opacity="0.3"/>
      <circle cx="50" cy="100" r="2" fill="#e2e8f0" opacity="0.3"/>
    </pattern>
  </defs>
  <rect width="100" height="100" fill="url(#pattern)"/>
</svg> 